<mxfile host="app.diagrams.net" modified="2023-10-13T09:40:49.307Z" agent="Mozilla/5.0 (Windows NT 10.0; Win64; x64) AppleWebKit/537.36 (KHTML, like Gecko) Chrome/117.0.0.0 Safari/537.36 Edg/117.0.2045.60" version="22.0.4" etag="YCjFKAYvd9yetT-rfhoT" type="github">
  <diagram name="Seite-1" id="UfiVidMxa7jfPMO67Tyj">
    <mxGraphModel>
      <root>
        <mxCell id="0" />
        <mxCell id="1" parent="0" />
      </root>
    </mxGraphModel>
  </diagram>
</mxfile>
